<svg t="1591780310458" class="icon" viewBox="0 0 1024 1024" version="1.1" xmlns="http://www.w3.org/2000/svg" p-id="5188" width="200" height="200"><path d="M502.956861 88.455384h7.513271c112.71833 2.255366 218.413476 46.337356 297.315163 124.232978 78.901085 77.899235 124.738118 182.599155 128.495657 295.061604v2.254161l0.248656 2.252958V513.75986l-0.248656 2.25356v2.504022c-2.003699 54.854885-14.278767 108.706716-36.571128 159.80045-21.792038 50.099711-52.098594 95.435218-90.171292 134.259905-78.395945 80.650107-180.840499 124.983764-288.546569 124.983764h-7.766142c-56.104187-1.00185-111.210739-13.02224-163.809656-35.564461-51.60068-22.041898-97.937434-52.85239-137.765175-91.672862-82.652603-80.404461-126.986861-185.604102-124.731495-296.063453 1.001248-55.60266 12.77539-110.208889 34.817891-162.305677 21.539769-51.099755 51.845121-96.936186 89.919023-136.757907 78.896268-81.656172 182.34508-126.741818 291.300452-126.741817m0-80.152795c-274.521275 0-490.681794 237.200567-495.691042 504.956346-5.509571 278.780341 234.195018 499.697839 504.706486 504.705282h9.269518c271.51392 0 485.921201-232.187104 495.441784-496.436409 0.250462-2.754485 0.501527-5.514388 0.250462-8.518733 0-3.004947 0-5.759432-0.250462-8.515723C1006.913164 229.971474 787.996957 13.560494 511.972907 8.302589h-9.016046z m0 0" p-id="5189" fill="#f4ea2a"></path><path d="M505.212227 767.743818c2.50342 3.004947 5.512582 4.50712 8.518733 4.50712 5.257303 0 10.267756-2.25356 15.024134-6.761884 13.777842-11.272616 30.059706-31.311416 48.841378-60.616123l15.78094 9.016045c-45.584163 79.152751-94.175079 118.978084-145.271823 118.978085-19.53607 0-35.067751-5.508969-46.592636-16.532327-11.518262-11.018541-17.277693-25.046845-17.277693-41.829635 0-11.274422 2.50342-25.297308 7.763733-42.581623l62.869081-215.910056c6.009894-20.538522 9.014841-36.064784 9.014842-46.587217 0-6.761282-3.004345-12.771176-8.763777-18.035101-5.760034-5.259109-13.528584-7.763733-23.295415-7.763734-4.75698 0-10.27197 0.250462-16.281864 0.500925l5.510173-18.033897 153.04519-24.797587h26.800684L508.221991 722.157247c-4.761797 18.284962-7.267023 30.555213-7.267023 36.569923 0.24986 3.256614 1.751431 6.0117 4.257259 9.016648z m0 0M620.182311 307.120526c-13.027057 12.771176-28.808598 19.287413-47.094163 19.287414-18.029683 0-33.308493-6.515636-46.337356-19.287414-12.769972-13.027057-19.285607-28.557534-19.285607-46.838281 0-18.285564 6.265173-34.066503 19.035747-47.087539 12.776594-13.027057 28.302255-19.538478 46.587216-19.538478 18.786489 0 34.56803 6.511421 47.345227 19.538478 12.771778 13.021638 19.280791 28.802578 19.280791 47.087539 0.251667 18.280747-6.509013 33.811224-19.531855 46.838281z m0 0" p-id="5190" fill="#f4ea2a"></path></svg>