<svg t="1590571690763" class="icon" viewBox="0 0 1024 1024" version="1.1" xmlns="http://www.w3.org/2000/svg" p-id="8797" width="200" height="200"><path d="M1111.46350547 857.92179861H212.8785782c-26.62997509 0-51.61030659-10.36919355-70.22772222-29.22227315-18.617417-18.85307957-28.98661055-43.59774714-28.75094798-70.2277236l3.29928992-661.74310931c0-26.39431251-9.19087652-44.06907505-54.90959651-51.37464264h-0.23566258l-131.97156118-22.62369604c-12.72582902-2.1209715-21.44537901-14.37547399-19.32440613-27.10130302 2.1209715-12.72582902 14.37547399-21.44537901 27.10130163-19.3244075l131.73589723 22.62369606c62.68649067 9.89786702 94.50106322 42.89075662 94.50106323 98.0360171L160.79694506 758.94312839c0 13.90414608 5.18459746 26.86563906 15.08246449 36.52784351 9.89786702 9.89786702 22.85936001 15.31812707 36.76350607 15.31812708h898.58492728c12.96149298 0 23.56635051 10.60485751 23.56634912 23.56635049s-10.36919355 23.56635051-23.33068655 23.56634914z" fill="#f4ea2a" p-id="8798"></path><path d="M1044.29940785 722.65095026l-832.12782015-2.59229943c-26.15864854-0.23566397-50.66765214-10.36919355-69.04940517-28.98661056-18.38175303-18.617417-28.27962006-43.12642059-28.27962007-69.28506913l2.59229805-488.76609905L1058.91054579 203.2485943c42.65509405 1.64964496 76.11931019 36.29217952 76.11931019 78.94727357V632.15616607c0 49.96066164-40.76978512 90.49478418-90.73044813 90.49478419zM212.64291562 672.9259512l831.89215618 2.59229804c24.03767705 0 43.59774714-19.56007008 43.59774713-43.36208317V282.19586787c0-17.20343599-13.66848348-31.34324603-30.8719181-31.81457256h-0.94265445l-891.51502227-66.45710712-2.1209715 438.33411087c0 13.43281952 5.18459746 26.15864854 14.61113795 35.82085161 8.95521257 9.42654048 21.68104158 14.84680053 35.34952506 14.84680053z" fill="#f4ea2a" p-id="8799"></path><path d="M304.31601684 935.69075375m-87.90248612 0a87.90248613 87.90248613 0 1 0 175.80497226 0 87.90248613 87.90248613 0 1 0-175.80497226 0Z" fill="#f4ea2a" p-id="8800"></path><path d="M304.31601684 1047.1595904c-61.50817362 0-111.46883526-49.96066164-111.46883526-111.46883665s49.96066164-111.46883526 111.46883526-111.46883525c61.50817362 0 111.46883526 49.96066164 111.46883526 111.46883525s-49.96066164 111.46883526-111.46883526 111.46883665z m0-175.80497227c-35.58518903 0-64.33613563 28.7509466-64.33613563 64.33613562s28.7509466 64.33613563 64.33613563 64.33613563 64.33613563-28.7509466 64.33613564-64.33613563-28.7509466-64.33613563-64.33613564-64.33613562z" fill="#f4ea2a" p-id="8801"></path><path d="M979.02061915 935.69075375m-87.90248614 0a87.90248613 87.90248613 0 1 0 175.80497088 0 87.90248613 87.90248613 0 1 0-175.80497088 0Z" fill="#f4ea2a" p-id="8802"></path><path d="M979.02061915 1047.1595904c-61.50817362 0-111.46883526-49.96066164-111.46883665-111.46883665s49.96066164-111.46883526 111.46883665-111.46883525 111.46883526 49.96066164 111.46883524 111.46883525-49.96066164 111.46883526-111.46883524 111.46883665z m0-175.80497227c-35.58518903 0-64.33613563 28.7509466-64.33613564 64.33613562s28.7509466 64.33613563 64.33613564 64.33613563 64.33613563-28.7509466 64.33613562-64.33613563-28.7509466-64.33613563-64.33613562-64.33613562z" fill="#f4ea2a" p-id="8803"></path><path d="M837.62251886 408.04017713H357.34030444c-12.96149298 0-23.56635051-10.60485751-23.5663505-23.56635051s10.60485751-23.56635051 23.5663505-23.56635049h480.28221442c12.96149298 0 23.56635051 10.60485751 23.56634912 23.56635049s-10.60485751 23.56635051-23.56634912 23.56635051zM837.62251886 543.54668944H357.34030444c-12.96149298 0-23.56635051-10.60485751-23.5663505-23.56635051s10.60485751-23.56635051 23.5663505-23.56634912h480.28221442c12.96149298 0 23.56635051 10.60485751 23.56634912 23.56634912s-10.60485751 23.56635051-23.56634912 23.56635051z" fill="#f4ea2a" p-id="8804"></path></svg>