<svg t="1590652344003" class="icon" viewBox="0 0 1024 1024" version="1.1" xmlns="http://www.w3.org/2000/svg" p-id="20656" width="200" height="200"><path d="M512 0C229.23 0 0 229.23 0 512s229.23 512 512 512 512-229.23 512-512S794.77 0 512 0z m308.37 368.823L466.103 730.807a35.182 35.182 0 0 1-54.418 5.12L235.703 557.275a36.498 36.498 0 0 1 0-51.053 35.145 35.145 0 0 1 50.286 0l150.308 152.612 333.824-341.028a35.182 35.182 0 0 1 50.286 0 36.535 36.535 0 0 1 0 51.053l-0.037-0.036z" p-id="20657" data-spm-anchor-id="a313x.7781069.0.i36" class="selected" fill="#f4ea2a"></path></svg>