<svg t="1591796312871" class="icon" viewBox="0 0 1024 1024" version="1.1" xmlns="http://www.w3.org/2000/svg" p-id="7665" width="200" height="200"><path d="M559.1 85.2c-12.3-12.3-28.7-19.1-46.1-19.1-17.4 0-33.8 6.8-46.1 19.1L177.1 375c-18.7 18.7-24.3 46.6-14.1 71 10.1 24.4 33.8 40.2 60.2 40.2h129.5c0.7 0 1.2 0.5 1.2 1.2v283.8c0 35.9 29.2 65.2 65.2 65.2h189.8c35.9 0 65.2-29.2 65.2-65.2V487.5c0-0.7 0.5-1.2 1.2-1.2h127.5c26.5 0 50.1-15.8 60.2-40.2 10.1-24.4 4.6-52.3-14.1-71L559.1 85.2z m244.4 337s-0.3 0.1-0.7 0.1H675.3c-35.9 0-65.2 29.2-65.2 65.2v283.7c0 0.7-0.5 1.2-1.2 1.2H419c-0.7 0-1.2-0.5-1.2-1.2V487.5c0-35.9-29.2-65.2-65.2-65.2H223.1c-0.4 0-0.6-0.1-0.6-0.1-0.3-0.2-0.7-1.1-0.6-1.5 0 0 0.1-0.2 0.4-0.5l289.9-289.8c0.5-0.5 1.2-0.5 1.7 0l289.8 289.9c0.3 0.3 0.4 0.5 0.4 0.5 0.1 0.3-0.3 1.2-0.6 1.4zM896 895.6H130c-17.7 0-32 14.3-32 32s14.3 32 32 32h766c17.7 0 32-14.3 32-32s-14.3-32-32-32z" p-id="7666" fill="#f2cf13"></path></svg>