<svg t="1590570230072" class="icon" viewBox="0 0 1024 1024" version="1.1" xmlns="http://www.w3.org/2000/svg" p-id="6272" width="200" height="200"><path d="M514.41664 737.36704a25.7536 25.7536 0 0 1-17.6384-6.93248 10.56768 10.56768 0 0 0-0.94208-1.05984 14.9248 14.9248 0 0 0-2.72384-2.03264l-398.42304-394.8544a25.78432 25.78432 0 0 1-7.68-18.30912 25.75872 25.75872 0 0 1 7.51616-18.36544 25.76896 25.76896 0 0 1 18.42176-7.68c6.8864 0 13.36832 2.66752 18.25792 7.51616l382.84288 379.40736 377.59488-381.04576a25.82016 25.82016 0 0 1 18.7904-8.064c6.72256 0 13.1072 2.57024 17.95584 7.23456a25.73312 25.73312 0 0 1 7.94624 18.16576 25.74848 25.74848 0 0 1-7.22944 18.46272l-396.29312 399.89248a25.74848 25.74848 0 0 1-18.39616 7.66464z" fill="#cdcdcd" p-id="6273"></path></svg>