<svg t="1590655286400" class="icon" viewBox="0 0 1024 1024" version="1.1" xmlns="http://www.w3.org/2000/svg" p-id="25765" width="200" height="200"><path d="M984 984H40V40h944zM939.748 84.252H84.252v855.5h855.496V84.252zM184.2 181.2a16.644 16.644 0 0 1 5.388-3.528A17.264 17.264 0 0 1 196 176h144c9.2 0 13.756 7.968 13.776 17.048S349.2 208 340 208H236l160.204 159.42a16.272 16.272 0 0 1 0.048 23.224 16.764 16.764 0 0 1-23.512-0.048L212 232v100a16 16 0 0 1-15.788 16.688A16.4 16.4 0 0 1 180 332V192a12.072 12.072 0 0 1 0.624-5.492 16.4 16.4 0 0 1 3.576-5.308z m13.696 485.72c9.2 0 14.112 7.624 14.092 16.724v100.228l162.376-158.956a16.724 16.724 0 0 1 23.504-0.048 16.34 16.34 0 0 1-0.048 23.276L236 807.928h103.944a14.356 14.356 0 0 1 15.464 14.984A16.148 16.148 0 0 1 339.944 840H200a30.624 30.624 0 0 1-8.716-1.66 16.204 16.204 0 0 1-8.96-8.872 14.344 14.344 0 0 1-2.324-5.504v-140.32a17.92 17.92 0 0 1 17.896-16.724zM812 208h-104a14.344 14.344 0 0 1-15.468-14.952A16.124 16.124 0 0 1 708 176h140a30.72 30.72 0 0 1 8.72 1.656 16.576 16.576 0 0 1 5.388 3.528 16.4 16.4 0 0 1 3.576 5.324A14.312 14.312 0 0 1 868 192v140a17.908 17.908 0 0 1-17.904 16.688c-9.2 0-14.116-7.6-14.096-16.688V232l-162.432 158.596a16.768 16.768 0 0 1-23.512 0.048 16.272 16.272 0 0 1 0.048-23.224z m-136.92 416.916l160.68 158.956v-100.228a16.036 16.036 0 0 1 15.784-16.724 16.432 16.432 0 0 1 16.208 16.724v140.32a12.132 12.132 0 0 1-0.628 5.504 16.196 16.196 0 0 1-8.956 8.872 17.2 17.2 0 0 1-6.4 1.66h-143.96c-9.2 0-13.752-8-13.772-17.088s4.584-15.004 13.772-14.984h103.964l-160.148-159.784a16.34 16.34 0 0 1-0.048-23.276 16.728 16.728 0 0 1 23.504 0.048z" p-id="25766" fill="#ffffff"></path></svg>