<svg t="1590723510946" class="icon" viewBox="0 0 1024 1024" version="1.1" xmlns="http://www.w3.org/2000/svg" p-id="2607" width="200" height="200"><path d="M905.111 802.355l-75.294-132.468v-276.852c0-57.726-20.971-118.586-59.049-171.371-38.736-53.699-93.122-95.716-153.132-118.314-0.35-0.131-0.703-0.255-1.058-0.37-1.378-0.445-6.492-2.077-14.005-4.237v-9.221c0-49.952-40.639-90.59-90.59-90.59s-90.59 40.639-90.59 90.59v8.557c-6.999 1.999-11.434 3.422-11.944 3.588-0.264 0.084-0.526 0.175-0.787 0.27-60.927 22.061-116.24 64.034-155.754 118.187-38.794 53.164-60.155 114.572-60.155 172.915v276.854l-80.572 141.806c-9.694 16.899-9.633 37.941 0.167 54.92 9.741 16.869 27.974 27.349 47.585 27.349h199.107c11.418 74.145 75.652 131.102 152.94 131.102s141.525-56.957 152.94-131.102h199.074c30.35 0 55.041-24.661 55.041-54.972 0-13.76-4.918-26.63-13.932-36.64zM511.985 46.221c23.138 0 42.093 18.242 43.246 41.096-4.853-0.917-9.768-1.759-14.655-2.47-2.094-0.304-4.187-0.321-6.228-0.077-0.843-0.124-1.701-0.252-2.57-0.385-6.041-0.914-12.888-1.943-20.525-1.943-7.63 0-14.473 1.033-20.513 1.941-0.739 0.11-1.469 0.222-2.188 0.327-2.117-0.285-4.285-0.288-6.46 0.016-4.455 0.626-8.917 1.355-13.316 2.154 1.367-22.649 20.221-40.659 43.211-40.659zM511.985 977.779c-51.128 0-94.002-35.905-104.803-83.815h209.61c-10.806 47.911-53.677 83.815-104.806 83.815zM864.001 846.677h-704.064c-2.773 0-5.313-1.423-6.632-3.704-1.408-2.437-1.446-5.407-0.054-7.834l83.708-147.32c2.024-3.559 3.086-7.584 3.086-11.681v-283.105c0-102.336 79.195-208.22 184.289-246.482 3.455-1.092 30.634-9.53 58.048-14.038 1.632 0.18 3.295 0.191 4.967 0.017 3.689-0.375 7.119-0.892 10.436-1.394 5.031-0.759 9.377-1.413 13.459-1.413 4.090 0 8.438 0.656 13.471 1.414 3.313 0.499 6.74 1.017 10.426 1.393 1.513 0.154 3.019 0.16 4.496 0.029 28.452 4.765 57.484 13.849 61.866 15.244 103.241 39.137 181.022 144.46 181.022 245.226v283.103c0 4.099 1.065 8.123 3.087 11.682l79.83 140.443c1.114 1.963 2.507 3.759 4.13 5.325 1.404 1.355 2.177 3.273 2.177 5.401-0.002 4.31-3.407 7.685-7.755 7.685z" p-id="2608" fill="#ffffff"></path></svg>