<svg t="1590483531125" class="icon" viewBox="0 0 1024 1024" version="1.1" xmlns="http://www.w3.org/2000/svg" p-id="14625" width="200" height="200"><path d="M512 256C357.184 256 213.888 339.392 80.512 512 213.888 684.608 357.184 768 512 768c154.88 0 298.624-83.392 432.896-256C810.624 339.392 666.88 256 512 256z m0 576C323.456 832 153.088 725.312 0.832 512 153.152 298.688 323.456 192 512 192c188.544 0 359.424 106.688 512.832 320-153.408 213.312-324.288 320-512.832 320z" p-id="14626" fill="#cdcdcd"></path><path d="M512 640a128 128 0 1 0 0-256 128 128 0 0 0 0 256z m0 64a192 192 0 1 1 0-384 192 192 0 0 1 0 384z" p-id="14627" fill="#cdcdcd"></path></svg>