<svg t="1590137861703" class="icon" viewBox="0 0 1024 1024" version="1.1" xmlns="http://www.w3.org/2000/svg" p-id="3638" width="200" height="200"><path d="M512 512m-448 0a448 448 0 1 0 896 0 448 448 0 1 0-896 0Z" fill="#facb05" p-id="3639" data-spm-anchor-id="a313x.7781069.0.i13" class="selected"></path><path d="M515.4 454.4h-47.6v62.2h49.4c25.4 0 38.1-11.1 38.1-33.4-1.2-19.3-14.5-28.2-39.9-28.8zM340.4 392.8c0-0.6-0.3-1.8-0.9-3.6-2.9-7.2-4.3-11.4-4.3-12.6h-0.9c-1.7 5.4-3.5 10.8-5.2 16.3-0.6 1.2-9.5 25.3-26.8 72.2h64.9c-17.3-46.9-26.2-71-26.8-72.3zM511.9 429.8c23.7-0.6 35.8-9.5 36.4-28.8-0.6-18.1-12.7-27.1-36.4-27.1h-44.2v55.9h44.2z" fill="#FFFFFF" p-id="3640"></path><path d="M798.1 248H225.9c-17.6 0-31.9 14.3-31.9 31.9v351.6c0 17.6 14.3 31.9 31.9 31.9h208.7l-73.9 79.5c-2.1 2.3-2 5.8 0.3 7.9l25.5 23.7c2.3 2.1 5.8 2 7.9-0.3l91.4-98.3v58.4c0 3.1 2.5 5.6 5.6 5.6h34.8c3.1 0 5.6-2.5 5.6-5.6v-55l100.5 93.5c2.3 2.1 5.8 2 7.9-0.3l23.7-25.5c2.1-2.3 2-5.8-0.3-7.9l-81.4-75.7h215.9c17.6 0 31.9-14.3 31.9-31.9V279.9c0-17.6-14.2-31.9-31.9-31.9zM421.8 537.4h-29.4l-18.2-49.7h-78.8l-18.2 49.7h-29.4l71-185.1h32l71 185.1c0-0.1 0 0 0 0z m99.7 0h-80.6V352.2h76.2c37.5 1.2 57.5 16 59.8 44.3-0.6 23.5-12.7 37.9-36.4 43.4v0.9c27.1 4.8 41.9 19.6 44.2 44.3 0 34.8-21.1 52.3-63.2 52.3z m88.3-91.3c0-60.9 30.8-95.7 84-96.6 24.1-0.4 42.9 8 56.4 23.7l-19.5 17.9c-8.5-11.2-20.7-17.4-36.9-17.2-34.2 0.4-54.3 26.1-54.6 71.4-0.3 45.2 19.5 71.1 53.7 72.3 23.6 0.8 39.2-6.4 49.1-13.7v29c-12.5 6.5-30.1 9.3-49.1 9.3-55.8-0.1-83-36.4-83.1-96.1zM770.1 617c0 2.1-1.7 3.9-3.9 3.9H652c-2.1 0-3.9-1.7-3.9-3.9v-32.2c0-2.1 1.7-3.9 3.9-3.9h114.2c2.1 0 3.9 1.7 3.9 3.9V617z" fill="#FFFFFF" p-id="3641"></path></svg>